/* XPM */
static char * msg_xpm[] = {
"400 35 2 1",
" 	c #FFFFFE",
".	c #FFFFFF",
"                                                                                                                                                                                                                                                                                                                                                                                                                ",
"                                                                                                                                                                                                                                                                                                                                                                                                                ",
"                                                                                                                                                                                                                                                                                                                                                                                                                ",
"                                                                                                                                                                                                                                                                                                                                                                                                                ",
"        ....                                                                            ........               ........                                                                                          .......                                                                                                                                                                     ....               ",
"       ....      ...........          ............            .................       .............          .............                   .....             ....                .....................      ............                       ............            ................. .....................   ...             ...      ............            ......          ...       ...               ",
"      ....       .............        ..............          .................     ................       ................                  ......           .....                .....................     ...............                     ..............          ................. .....................   ...             ...      ..............          ......          ...        ...              ",
"      ...        ...............      ...............         .................     .....      .....       .....      .....                  ......           .....                .....................    ......     ......                    ...............         ................. .....................   ...             ...      ...............         .......         ...        ....             ",
"     ...         ....      .....      ....       .....        ....                 ....           ..      ....           ..                  ......          ......                         ...            .....         .....                   ....       .....        ....                       ...            ...             ...      ....       .....        .......         ...         ...             ",
"     ...         ....        ....     ....        ....        ....                 ...             .      ...             .                  .......         ......                         ...            ....           ....                   ....        ....        ....                       ...            ...             ...      ....        ....        ... ....        ...          ...            ",
"    ...          ....         ...     ....         ...        ....                ....                   ....                                ... ...        ... ...                         ...           ....             ....                  ....         ...        ....                       ...            ...             ...      ....         ...        ...  ...        ...          ...            ",
"    ...          ....         ...     ....         ....       ....                ....                   ....                                ...  ...       ... ...                         ...           ...              ....                  ....         ....       ....                       ...            ...             ...      ....         ....       ...  ....       ...           ...           ",
"   ...           ....         ...     ....         ...        ....                ....                   ....                                ...  ...      ...  ...                         ...          ....               ...                  ....         ...        ....                       ...            ...             ...      ....         ...        ...   ...       ...           ...           ",
"   ...           ....         ...     ....         ...        ....                 ....                   ....                               ...   ...     ...  ...                         ...          ....               ....                 ....         ...        ....                       ...            ...             ...      ....         ...        ...   ....      ...           ....          ",
"   ...           ....         ...     ....         ...        ....                 ......                 ......                             ...   ...    ...   ...                         ...          ....               ....                 ....         ...        ....                       ...            ...             ...      ....         ...        ...    ...      ...            ...          ",
"  ....           ....        ....     ....        ....        .................     ..........             ..........                        ...    ...   ...   ...                         ...          ...                ....                 ....        ....        .................          ...            ...             ...      ....        ....        ...     ...     ...            ...          ",
"  ...            ....        ....     ....      .....         .................      ............           ............                     ...    ...  ...    ...                         ...          ...                ....                 ....      .....         .................          ...            ...             ...      ....      .....         ...     ...     ...            ...          ",
"  ...            ....      .....      ..............          .................        ............           ............                   ...     ... ...    ...                         ...          ...                ....                 ..............          .................          ...            ...             ...      ..............          ...      ...    ...            ...          ",
"  ...            ..............       .............           ....                         .........              .........                  ...     ......     ...                         ...          ...                ....                 .............           ....                       ...            ...             ...      .............           ...      ...    ...            ...          ",
"  ...            .............        ............            ....                             ......                 ......                 ...      .....     ...                         ...          ....               ....                 ............            ....                       ...            ...             ...      ............            ...       ...   ...            ...          ",
"  ...            ...........          ....     ....           ....                               ....                   ....                 ...      ....      ...                         ...          ....               ....                 ....     ....           ....                       ...            ...             ...      ....     ....           ...       ....  ...            ...          ",
"  ...            ....                 ....     .....          ....                                ...                    ...                 ...       ...      ...                         ...          ....               ...                  ....     .....          ....                       ...            ...             ...      ....     .....          ...        ...  ...            ...          ",
"  ...            ....                 ....      ....          ....                                ...                    ...                 ...       ..       ...                         ...           ...              ....                  ....      ....          ....                       ...            ...            ....      ....      ....          ...        .... ...            ...          ",
"  ...            ....                 ....       ....         ....                                ...                    ...                 ...                ...                         ...           ....             ....                  ....       ....         ....                       ...            ....           ....      ....       ....         ...         ... ...            ...          ",
"  ...            ....                 ....        ....        ....                .              ....    .              ....                 ...                ...                         ...            ....           ....                   ....        ....        ....                       ...             ...           ...       ....        ....        ...         .......            ...          ",
"  ...            ....                 ....         ....       ....                ...            ...     ...            ...                  ...                ...                         ...            .....         .....                   ....         ....       ....                       ...             ....         ....       ....         ....       ...          ......            ...          ",
"   ...           ....                 ....          ....      ....                ......       .....     ......       .....                  ...                ...                         ...             ......     ......                    ....          ....      ....                       ...              .....     .....        ....          ....      ...          ......            ...          ",
"   ...           ....                 ....          .....     .................   .................      .................                   ...                ...                         ...              ...............                     ....          .....     .................          ...              ..............         ....          .....     ...           .....           ....          ",
"   ...           ....                 ....           .....    .................    ...............        ...............                    ...                ...                         ...               ............                       ....           .....    .................          ...                ...........          ....           .....    ...           .....           ...           ",
"    ...          ....                 ....            ....    .................        ........               ........                       ...                ...                         ...                  .......                         ....            ....    .................          ...                  .......            ....            ....    ...            ....           ...           ",
"    ...                                                                                                                                                                                                                                                                                                                                                                                          ...            ",
"     ...                                                                                                                                                                                                                                                                                                                                                                                         ...            ",
"     ...                                                                                                                                                                                                                                                                                                                                                                                        ...             ",
"      ...                                                                                                                                                                                                                                                                                                                                                                                      ....             ",
"      ....                                                                                                                                                                                                                                                                                                                                                                                     ...              "};
