/* XPM */
static char * num_2_xpm[] = {
"27 35 2 1",
" 	c #FFFFFE",
".	c #000000",
"                           ",
"                           ",
"         .........         ",
"       .............       ",
"     .................     ",
"    ......       ......    ",
"   ......         ......   ",
"   .....          ......   ",
"                 .......   ",
"               ........    ",
"              .......      ",
"            .......        ",
"          .......          ",
"        .......            ",
"       ......              ",
"     .......               ",
"    .......                ",
"   .......                 ",
"   ......                  ",
"   ......                  ",
"   ......                  ",
"   ......                  ",
"   ......                  ",
"   ......                  ",
"   ......                  ",
"   .....................   ",
"   .....................   ",
"   .....................   ",
"   .....................   ",
"                           ",
"                           ",
"                           ",
"                           ",
"                           ",
"                           "};
