/* XPM */
static char * score_xpm[] = {
"135 35 2 1",
" 	c #FFFFFE",
".	c #000000",
"                                                                                                                                       ",
"                                                                                                                                       ",
"                                                                                                                                       ",
"                                                                                                                                       ",
"                                                                                                                                       ",
"        ........                 ........                .......                                                                       ",
"      .............            .............          ............           ............            .................                 ",
"    ................         ................        ...............         ..............          .................                 ",
"    .....      .....        ......      .....       ......     ......        ...............         .................                 ",
"   ....           ..       .....           ..      .....         .....       ....       .....        ....                              ",
"   ...             .       ....             .      ....           ....       ....        ....        ....                              ",
"  ....                    ....                    ....             ....      ....         ...        ....                              ",
"  ....                    ...                     ...              ....      ....         ....       ....                    ....      ",
"  ....                    ...                    ....               ...      ....         ...        ....                    ....      ",
"   ....                  ....                    ....               ....     ....         ...        ....                    ....      ",
"   ......                ....                    ....               ....     ....         ...        ....                    ....      ",
"    ..........           ...                     ...                ....     ....        ....        .................       ....      ",
"     ............        ...                     ...                ....     ....      .....         .................                 ",
"       ............      ...                     ...                ....     ..............          .................                 ",
"           .........     ...                     ...                ....     .............           ....                              ",
"               ......    ....                    ....               ....     ............            ....                              ",
"                 ....    ....                    ....               ....     ....     ....           ....                              ",
"                  ...    ....                    ....               ...      ....     .....          ....                              ",
"                  ...     ...                     ...              ....      ....      ....          ....                              ",
"                  ...     ....                    ....             ....      ....       ....         ....                              ",
"  .              ....      ....             .      ....           ....       ....        ....        ....                              ",
"  ...            ...       .....           ..      .....         .....       ....         ....       ....                    ....      ",
"  ......       .....        ......      .....       ......     ......        ....          ....      ....                    ....      ",
"  .................          ................        ...............         ....          .....     .................       ....      ",
"   ...............             .............          ............           ....           .....    .................       ....      ",
"       ........                  ........                .......             ....            ....    .................       ....      ",
"                                                                                                                                       ",
"                                                                                                                                       ",
"                                                                                                                                       ",
"                                                                                                                                       "};
