/* XPM */
static char *space_ship_xpm_2[] = {
/* columns rows colors chars-per-pixel */
"64 64 14 1 ",
"  c #131212",
". c #3E3E3E",
"X c #023D65",
"o c #4C0071",
"O c #FF0000",
"+ c #FF8900",
"@ c #FFEE00",
"# c #650096",
"$ c #994CBF",
"% c #B828FF",
"& c #5BBEFF",
"* c #838383",
"= c #A3DAFF",
"- c #FFFFFE",
/* pixels */
"----------------------------------------------------------------",
"-----------------------------XXXXXX-----------------------------",
"-----------------------------XXXXXX-----------------------------",
"------------....-------------XXXXXX-------------....------------",
"------------....------------XXXXXXXX------------....------------",
"------------....-----------XXXOOOOXXX-----------....------------",
"------------........-------XXXOOOOXXX--------.......------------",
"------------........-------XXXOOOOXXX--------.......------------",
"------------............XXXXXXOOOOXXXXXX............------------",
"----------------........XXXXXXOOOOXXXXXX........----------------",
"----------------........XXXOOO++++OOOXXX........----------------",
"----------------........XXXOOO++++OOOXXX........----------------",
"-------------------........OOO++++OOO........-------------------",
"-------------------........OOO++++OOO........-------------------",
"-------------------........OOO++++OOO........-------------------",
"----------------------XX...+++@@@@+++...XX----------------------",
"----------------------XX...+++@@@@+++...XX----------------------",
"----------------------XX...+++@@@@+++...XX----------------------",
"---------------------XXX...+++@@@@+++...XXX---------------------",
"---------------------XXX...+++@@@@+++...XXX---------------------",
"--------------------XXXX...          ...XXXX--------------------",
"-------------------XXXXX...          ...XXXXX-------------------",
"------------------XXXOOO...          ...OOOXXX------------------",
"-----------------XXXXOOO...          ...OOOXXXX-----------------",
"----------------XXXXXOOO................OOOXXXXX----------------",
"---------------XXXXXXOOO................OOOXXXXXX---------------",
"&&&&&&&&&&&XXXX###OOO+++OOO...****...OOO+++OOO###XXXX&&&&&&&&&&&",
"==&&&&&&&&&XXXX###OOO+++OOO...*##*...OOO+++OOO###XXXX&&&&&&&&&==",
"===&&&&&&&&XXXX###OOO+++OOO...####...OOO+++OOO###XXXX&&&&&&&&===",
"-===&&&&&&&XXXX###OOO+++OOO...####...OOO+++OOO###XXXX&&&&&&&===-",
"--===****&&&&XX$$$+++@@@+++===####===+++@@@+++$$$XX&&&&****===--",
"---==   *&&&&XX$$$+++@@@+++===####===+++@@@+++$$$XX&&&&***===---",
"----===  **&&&&$$$+++@@@+++===####===+++@@@+++$$$&&&&****===----",
"-----=== **&&&&$$$+++@@@+++===*##*===+++@@@+++$$$&&&&***===-----",
"------===  **&&&&&$$$ooo###===*##*===$$$ooo%%%&&&&&****===------",
"-------===  *&&&&&$$$ooo###===*##*===$$$ooo%%%&&&&&***===-------",
"--------===  **&&&$$$ooo###===*##*===$$$ooo%%%&&&****===--------",
"---------===  *&&&&&&$$$===**********===$$$&&&&&&***===---------",
"----------===  **&&&&$$$===**  **  **===$$$&&&&****===----------",
"-----------===  *&&&&$$$=      **  **===$$$&&&&***===-----------",
"------------===****&&&&&* *          ***&&&&&****===------------",
"-------------===***&&&&&*  *       *  **&&&&&***===-------------",
"--------------====******    * *    **  *** ***====--------------",
"---------------===**      *   **   *** *   ***===---------------",
"----------------==****        **  *      *****==----------------",
"------------------*==* **                **==*------------------",
"-------------------==*** *  * **     *  ***==-------------------",
"--------------------==**          *     **==--------------------",
"--------------------==**          *    ***==--------------------",
"--------------------==***  *   *  **  ****==--------------------",
"--------------------==** ****  * *** ****===--------------------",
"---------------------==*****=**  **=*****==---------------------",
"---------------------==****===****===****==---------------------",
"----------------------==XXX$$$XXXX&&&XXX==----------------------",
"----------------------===XX$$$XXXX&&&XX===----------------------",
"-----------------------==XX$$$XXXX&&&XX==-----------------------",
"------------------------==X$$$XXXX&&&X==------------------------",
"------------------------===$$$XXXX&&&===------------------------",
"-------------------------==$$$XXXX&&&==-------------------------",
"--------------------------===$XXXX&===--------------------------",
"---------------------------===XXXX===---------------------------",
"----------------------------========----------------------------",
"-----------------------------&&==&&-----------------------------",
"----------------------------------------------------------------"
};
