/* XPM */
static char *bullet_xpm[] = {
"20 20 4 1 ",
"  c #FFFFFE",
". c #6259FF",
"X c #B3AEFF",
"o c #FFFFFF",
"                    ",
"                    ",
"        XXXXX       ",
"      XX.....XX     ",
"     X.........X    ",
"    X...........X   ",
"   X.....XXX.....X  ",
"   X....XoooX....X  ",
"  X....XoooooX....X ",
"  X...XoooooooX...X ",
"  X...XoooooooX...X ",
"  X...XoooooooX...X ",
"  X....XoooooX....X ",
"   X....XoooX....X  ",
"   X.....XXX.....X  ",
"    X...........X   ",
"     X.........X    ",
"      XX.....XX     ",
"        XXXXX       ",
"                    "
};
