/* XPM */
static char * num_0_xpm[] = {
"27 35 2 1",
" 	c #FFFFFE",
".	c #000000",
"                           ",
"                           ",
"         .........         ",
"       .............       ",
"     .................     ",
"    ...................    ",
"   .......       .......   ",
"   ......         ......   ",
"   .....           .....   ",
"   .....           .....   ",
"   .....           .....   ",
"   .....           .....   ",
"   .....           .....   ",
"   .....           .....   ",
"   .....           .....   ",
"   .....           .....   ",
"   .....           .....   ",
"   .....           .....   ",
"   .....           .....   ",
"   .....           .....   ",
"   .....           .....   ",
"   .....           .....   ",
"   .....           .....   ",
"   .....           .....   ",
"   ......         ......   ",
"   .......       .......   ",
"    ...................    ",
"     .................     ",
"       .............       ",
"         .........         ",
"                           ",
"                           ",
"                           ",
"                           ",
"                           ",
"                           "};
