/* XPM */
static char *space_ship_xpm_7[] = {
/* columns rows colors chars-per-pixel */
"90 90 188 2 ",
"   c None",
".  c #131212",
"X  c #1C1B1B",
"o  c #181717",
"O  c #201F1F",
"+  c #242424",
"@  c #2B2A2A",
"#  c #282727",
"$  c #343333",
"%  c #3E3E3E",
"&  c #383737",
"*  c #302F2F",
"=  c #4B3A3A",
"-  c #742D2D",
";  c #62263F",
":  c #653131",
">  c #7E510A",
",  c #7E760A",
"<  c #614321",
"1  c #163D59",
"2  c #2D3E49",
"3  c #303E47",
"4  c #333251",
"5  c #223558",
"6  c #361D7F",
"7  c #023D65",
"8  c #16316F",
"9  c #552750",
"0  c #4C0071",
"q  c #540879",
"w  c #0B446B",
"e  c #1E4C6C",
"r  c #164D72",
"t  c #1D5175",
"y  c #424242",
"u  c #4B4A4A",
"i  c #484747",
"p  c #5B5B5B",
"a  c #545454",
"s  c #556C7D",
"d  c #636363",
"f  c #6C6C6C",
"g  c #737373",
"h  c #7B7B7B",
"j  c #475B68",
"k  c #A81C1C",
"l  c #B2131F",
"z  c #8F1B2C",
"x  c #A81523",
"c  c #932523",
"v  c #E90609",
"b  c #FF0000",
"n  c #EC1D08",
"m  c #FF1B00",
"M  c #C72F16",
"N  c #FF2600",
"B  c #FF3400",
"V  c #FF3D00",
"C  c #A8671C",
"Z  c #FF5600",
"A  c #FF7C00",
"S  c #9C0060",
"D  c #8E0561",
"F  c #933064",
"G  c #884B52",
"H  c #AD6451",
"J  c #BE627A",
"K  c #AA5974",
"L  c #FF8900",
"P  c #FF8700",
"I  c #FF9C00",
"U  c #FFAE00",
"Y  c #FFA500",
"T  c #FFB600",
"R  c #FFC500",
"E  c #FFEE00",
"W  c #FFE300",
"Q  c #3C2883",
"!  c #5B048C",
"~  c #650096",
"^  c #6B1B92",
"/  c #742799",
"(  c #7B25A7",
")  c #7431A1",
"_  c #1A5F8E",
"`  c #3C6A88",
"'  c #2A77AA",
"]  c #544596",
"[  c #78518A",
"{  c #60469D",
"}  c #6F4B91",
"|  c #58788D",
" . c #797E81",
".. c #617D91",
"X. c #6758A8",
"o. c #6967BE",
"O. c #7F7BD9",
"+. c #893CAE",
"@. c #B95F83",
"#. c #807785",
"$. c #994CBF",
"%. c #805CBE",
"&. c #CE46AF",
"*. c #B828FF",
"=. c #A420E4",
"-. c #994EC0",
";. c #9258C6",
":. c #8F6FCF",
">. c #8875FF",
",. c #3485BB",
"<. c #678396",
"1. c #7B8C98",
"2. c #7D8184",
"3. c #5D96BC",
"4. c #598EB0",
"5. c #688CA4",
"6. c #7895AA",
"7. c #739BB5",
"8. c #6A94B0",
"9. c #7CA3BE",
"0. c #388CC3",
"q. c #4499D2",
"w. c #4090C5",
"e. c #7C82DD",
"r. c #53A2D7",
"t. c #6CA5CA",
"y. c #6CA2C5",
"u. c #69AAD5",
"i. c #6AA7D0",
"p. c #6E9AEB",
"a. c #778CED",
"s. c #5BBEFF",
"d. c #5FB8F2",
"f. c #63B3E7",
"g. c #67A9F3",
"h. c #6AC4FF",
"j. c #65C2FF",
"k. c #7CCBFF",
"l. c #838383",
"z. c #82888B",
"x. c #969696",
"c. c #889298",
"v. c #8B9BA6",
"b. c #9D8BBB",
"n. c #92ACBD",
"m. c #90A6B4",
"M. c #8CA7B9",
"N. c #B2B2B2",
"B. c #AAAAAA",
"V. c #CCB68C",
"C. c #928ED5",
"Z. c #93ACC4",
"A. c #95B5CB",
"S. c #94B1C5",
"D. c #97BAD1",
"F. c #99BED7",
"G. c #90AAD0",
"H. c #9F98E1",
"J. c #A0B3ED",
"K. c #ADA3C7",
"L. c #9AC1DC",
"P. c #B9C9D5",
"I. c #A9C2D2",
"U. c #88C0E5",
"Y. c #9CC8E5",
"T. c #83CDFF",
"R. c #98D6FF",
"E. c #8ECEF8",
"W. c #A3DAFF",
"Q. c #A9DDFF",
"!. c #A9D4F8",
"~. c #B8E2FF",
"^. c #C2D0DA",
"/. c #D3D3D3",
"(. c #C2C2C2",
"). c #CCD8E0",
"_. c #D0DBE3",
"`. c #C2E6FF",
"'. c #CBEAFF",
"]. c #C7E9FF",
"[. c #D3EDFF",
"{. c #DEF2FF",
"}. c #EDF1F4",
"|. c #EEF8FF",
" X c #E9F6FF",
".X c #F3F3F3",
"XX c None",
"oX c #F2FAFF",
/* pixels */
"                                                                                          XX                                                                                        ",
"                                                                                        XXXXXX                                                                                      ",
"                                                                                      XXXXXXXXXX                                                                                    ",
"                                                                                    XXXXXXXXXXXXXX                                                                                  ",
"                                                                                  XXXXXXXXXXXXXXXXXX                                                                                ",
"                                                                                XXXXXXXXXXXXXXXXXXXXXX                                                                              ",
"                                                                              XXXXXXXXXXXXXXXXXXXXXXXXXX                                                                            ",
"                                                                            XXXXXXXXXXXXXXXXXXXXXXXXXXXXXX                                                                          ",
"                                                                          XXXXXXXXXXXXXXXXXXXXXXXXXXXXXXXXXX                                                                        ",
"                                                                        XXXXXXXXXXXXXXXXXXXXXXXXXXXXXXXXXXXXXX                                                                      ",
"                                                                      XXXXXXXXXXXXXXXXXXXXXXXXXXXXXXXXXXXXXXXXXX                                                                    ",
"                                                                    XXXXXXXXXXXXXXXXXXXXXXXXXXXXXXXXXXXXXXXXXXXXXX                                                                  ",
"                                                                  XXXXXXXXXXXXXXXXXXXXXXXXXXXXXXXXXXXXXXXXXXXXXXXXXX                                                                ",
"                                                                XXXXXXXXXXXXXXXXXXXXXXXXXXXXXXXXXXXXXXXXXXXXXXXXXXXXXX                                                              ",
"                                                              XXXXXXXXXXXXXXXXXXXXXXXXXXXXXXXXXXXXXXXXXXXXXXXXXXXXXXXXXX                                                            ",
"                                                            XXXXXXXXXXXXXXXXXXXXXXXXXXXXXXXXXXXXXXXXXXXXXXXXXXXXXXXXXXXXXX                                                          ",
"                                                          XXXXXXXXXXXXXXXXXXXXXXXXXXXXXXXXXXXXXXXXXXXXXXXXXXXXXXXXXXXXXXXXXX                                                        ",
"                                                        XXXXXXXXXXXXXXXXXXXXXXXXXXXXXXXXXXXXXXXXXXXXXXXXXXXXXXXXXXXXXXXXXXXXXX                                                      ",
"                                                      XXXXXXXXXXXXXXXXXXXXXXXXXXXXXXXXXXXXXXXXXXXXXXXXXXXXXXXXXXXXXXXXXXXXXXXXXX                                                    ",
"                                                    XXXXXXXXXXXXXXXXXXXXXXXXXXXXXXXXXXXXXXXXXXXXXXXXXXXXXXXXXXXXXXXXXXXXXXXXXXXXXX                                                  ",
"                                                  XX|. XoXoX X|.XXXXXXXXXXXXXXXXXXXXXXXXXXXXXXXXXXXXXXXXXXXXXXXXXXXXXXXXXXXXXXXXXXXX                                                ",
"                                                s.R.Q.W.Q.Q.W.Q.~.{.{.[.XXoXXXXXXXXXXXXXXXXXXXXXXXXXXXXXXXXXXXXXXXXXXXXXXXXXXXXXXXXXXX                                              ",
"                                              R.R.U.!.Q.C.H.Q.E.U.R.W.W.`.~.|.|.XXXXXXXXXXXXXXXXXXXXXXXXXXXXXXXXXXXXXXXXXXXXXXXXXXXXXXXX                                            ",
"                                            R.W.3.7 { -.$.$.X.r 7 3.y.Y.L.W.Q.W.[.XXXXXXXXXXXXXXXXXXXXXXXXXXXXXXXXXXXXXXXXXXXXXXXXXXXXXXXX                                          ",
"                                          s.R.3.7 7 7 ] $.$.$.] 7 7 r  .l.n.m.W.W.[.XXXX.XXX`.'.'.`.].[.`.].'.].`.'.'.`.].'.].`.'.'.~.'.'.Q.                                        ",
"                                        XXW.U.7 7 7 7 7 { $.$.$.] e  .2.d l.l.m.W.Q.~.!.z.I.W.W.W.W.W.R.W.W.W.W.W.W.W.W.W.W.W.9.W.W.W.W.W.W.T.                                      ",
"                                      XX|.W.W.w.7 7 7 7 7 ] $.$.:.Z.l.1.y f l.l.m.n.Y.W.c.l.L.Q.S.A.Z.s <.<.s ..<.| s 5...s ..+ v.k.T.T.k.T.h.{.                                    ",
"                                    XXXX XW.W.s.0.7 7 7 w w ] :.!.Z.l.K * $ $ l.l.g z.v.f l.l.v.l.l.u # o X # + . # $ g + # + g t.s.s.s.s.h.{.XXXX                                  ",
"                                  XXXXXXoXQ.k.s.s.0.7 7 7 7 e A.S.L.l.p . . . $ 2.$ y a O h 7.z.l.7.2.2.4.h 1.5.g 6.6.l.5.1.h t.s.s.s.s.h.{.XXXXXXXX                                ",
"                                XXXXXXXXoXQ.T.s.s.s.0.7 7 e  .h p $ * % . . u i l.$ . O g y.s.f.u.s.u.f.s.i.d.s.t.s.s.i.s.d.i.s.s.s.s.h.{.XXXXXXXXXXXX                              ",
"                              XXXXXXXXXX XW.W.q.s.s.s.0.e  .% 9 X . . . . . X . # . O g y.s.s.s.s.s.s.s.s.s.s.s.s.s.s.s.s.s.s.s.s.s.h.{.XXXXXXXXXXXXXXXX                            ",
"                            XXXXXXXXXXXX|.W.E.r ,.s.s.h.D.h # u f o . . a # . . o . @ 7.s.s.e.g.s.s.e.p.s.s.p.C.s.,.,.s.' q.s.s.s.h.{.XXXXXXXXXXXXXXXXXXXX                          ",
"                          XXXXXXXXXXXXXXXX~.U.7 w ,.h.R.A.l.g X * . . # @ . . # d o & 6.s.O.$.;.g.C.-.-.p.p.$.$.o.7 7 _ 7 7 q.s.h.{.XXXXXXXXXXXXXXXXXXXXXXXX                        ",
"                        XXXXXXXXXXXXXXXXXX{.W.3.7 e S.S.D.l.d . . . a d . . . . X . o a Z.$.$.$.) +.-.-.@.J $.$.$.] 7 7 7 7 7 r.{.XXXXXXXXXXXXXXXXXXXXXXXXXXXX                      ",
"                      XXXXXXXXXXXXXXXXXXXX{.W.y.e h l.f * 2.g a . . & . d % o f u u f o 9.J.$./ 0 q +.@.L L J $.$.( 6 7 7 7 r ).XXXXXXXXXXXXXXXXXXXXXXXXXXXXXXXX                    ",
"                    XXXXXXXXXXXXXXXXXXXXXX'.W.L.2.l.l.2.O O . p * . . % l.l.% + o o + j W.W.o.0 0 0 G I L L L J ( ~ ~ 6 7 r ).XXXXXXXXXXXXXXXXXXXXXXXXXXXXXXXXXXXX                  ",
"                  XXXXXXXXXXXXXXXXXXXXXXXXXX~.L.l.l.l.g X . . . . . . . y & y . . . & n.R.:.~ ! 0 G E W I L L V S ~ ~ ~ Q ).XXXXXXXXXXXXXXXXXXXXXXXXXXXXXXXXXXXXXXXX                ",
"                XXXXXXXXXXXXXXXXXXXXXXXXXXXX~.W.L.2.l.f . . * . . i % . . . . . . O l.l.C.~ ~ ~ F E E E W I V b b S ~ ! 8 P.XXXXXXXXXXXXXXXXXXXXXXXXXXXXXXXXXXXXXXXXXX              ",
"              XXXXXXXXXXXXXXXXXXXXXXXXXXXXXX|.Q.W.c.l.g X X a . . % & . . . . u X X g n.W.:.~ F L Y E E E Y m b b b D 8 w ).XXXXXXXXXXXXXXXXXXXXXXXXXXXXXXXXXXXXXXXXXXXX            ",
"            XXXXXXXXXXXXXXXXXXXXXXXXXXXXXXXXoXW.W.m.l.l.* . . . y l.l.& . . u l.f f v.W.W.W.b.L L L Y E T L A m b v 4 7 r }.XXXXXXXXXXXXXXXXXXXXXXXXXXXXXXXXXXXXXXXXXXXXXX          ",
"          XXXXXXXXXXXXXXXXXXXXXXXXXXXXXXXXXXXX[.W.W.m.l.d . . o d p a d . . X f l.[ #.D.W.W.W.V.P P L Z P L L A n 4 7 7 7 ^.XXXXXXXXXXXXXXXXXXXXXXXXXXXXXXXXXXXXXXXXXXXXXXXX        ",
"        XXXXXXXXXXXXXXXXXXXXXXXXXXXXXXXXXXXXXXXX[.W.n.l.p . $ a o X O . p & X f [ ~ ^ #.D.Q.W.W.V.P Z b N P L A n 4 7 7 7 ^.XXXXXXXXXXXXXXXXXXXXXXXXXXXXXXXXXXXXXXXXXXXXXXXXXX      ",
"      XXXXXXXXXXXXXXXXXXXXXXXXXXXXXXXXXXXXXXXXXXXX~.Y.z.l.y O 2.f g h 1.l.l.g v.#.^ ~ ^  .C.W.W.W.H b b b N A N b v 4 7 r }.XXXXXXXXXXXXXXXXXXXXXXXXXXXXXXXXXXXXXXXXXXXXXXXXXXXX    ",
"    XXXXXXXXXXXXXXXXXXXXXXXXXXXXXXXXXXXXXXXXXXXXoX~.Q.v.p X g 7.1.l.L.W.M.l.Z.W.D.#.^ ~ ~ ~ C.R...% c b b v c b b b v 1 7 ).XXXXXXXXXXXXXXXXXXXXXXXXXXXXXXXXXXXXXXXXXXXXXXXXXXXXXX  ",
"  XXXXXXXXXXXXXXXXXXXXXXXXXXXXXXXXXXXXXXXXXXXXXX.Xl.c.l.g O 4.s.s.A.W.W.W.G.W.W.Q.D. .~ ~ ~ ~ X.9 % % c v : = - b b x 7 7 ^.XXXXXXXXXXXXXXXXXXXXXXXXXXXXXXXXXXXXXXXXXXXXXXXXXXXXXXXX",
"XXXXXXXXXXXXXXXXXXXXXXXXXXXXXXXXXXXXXXXXXXXXXXXXXXI.l.l.2.3.s.s.O.$.Y.Q.H.$.H.W.W.W.C.~ ~ ~ ~ ~ 9 3 % % = % % % - x 7 7 w _.XXXXXXXXXXXXXXXXXXXXXXXXXXXXXXXXXXXXXXXXXXXXXXXXXXXXXXXX",
"  XXXXXXXXXXXXXXXXXXXXXXXXXXXXXXXXXXXXXXXXXXXXXX].W.L.z.7.s.s.:.$.$.$.:.$.$.$.K.W.W.W.C.~ ~ ~ ~ [ p % % % % % % % 2 7 7 7 t }.XXXXXXXXXXXXXXXXXXXXXX.XXXXXXXXXXXXXXXXXXXXXXXXXXXXX  ",
"    XXXXXXXXXXXXXXXXXXXXXXXXXXXXXXXXXXXXXXXXXXXX'.W.W.v.2.f.s.g.;.$./ 0 +.$.J A V.W.W.W.} ~ ~ ~ [ h y % $ . # % % % 2 7 7 ` XXXXXX(..XXXXX/./.XXXX.Xf h XXXXXXXXXXXXXXXXXXXXXXXX    ",
"      XXXXXXXXXXXXXXXXXXXXXXXXXXXXXXXXXXXXXXXXXX'.W.Z.l.l.u.s.s.g.) 0 0 0 K L L L V.W.<.3 9 [ [ h u % $ . . . + % % % 2 7 7 5.XXN.% f }./.u u /..Xf % % h oXXXXXXXXXXXXXXXXXXX      ",
"        XXXXXXXXXXXXXXXXXXXXXXXXXXXXXXXXXXXXXXXX~.W.A.l.7.s.s.s.>.=.! 0 G E Y L L L H y 3 = a h u % $ o . . . . < % % % 2 7 7 s % % % p i % % u d % % % = g XXXXXXXXXXXXXXXX        ",
"          XXXXXXXXXXXXXXXXXXXXXXXXXXXXXXXXXXXXXX'.W.S.l.l.u.s.>.*.*.=.G E E E Y L Z b c 9 % % y % $ o . . . . > L C % % % 3 1 % % % % % % % % % % % % % % % g XXXXXXXXXXXX          ",
"            XXXXXXXXXXXXXXXXXXXXXXXXXXXXXXXXXXXX'.W.n.l.z.f.s.a.*.*.&.I W E E E Z b b b c % % % $ o . . . . > P L L C % % % % % % % % % % % % % % % a % % % x.XXXXXXXXXX            ",
"              XXXXXXXXXXXXXXXXXXXXXXXXXXXXXXXXXX`.W.A.l.7.s.s.s.a.&.P L I W E T L N b b v = % & o . . . . , E T L L P C % % % % = % % % y y % % % N..Xf % c.XXXXXXXXXX              ",
"                XXXXXXXXXXXXXXXXXXXXXXXXXXXXXXXX`.W.S.l.l.i.s.s.p.@.L L L I Y L L L N v : % & o . . . . , E E E U P P Z k % % 3 1 3 % % % x.x.= N.XXXX.XB.XXXXXXXXXX                ",
"                  XXXXXXXXXXXXXXXXXXXXXXXXXXXXXX[.W.n.l.1.d.s.p.-.-.J L L V m A L L A c % % 3 # . . . > E E E E E U Z b b k 3 7 7 1 % % x.XXXX/.XXXXXXXXXXXXXXXXXX                  ",
"                    XXXXXXXXXXXXXXXXXXXXXXXXXXXX].W.n.l.7.s.s.e.-.-.-.J V b b m A P m b - % = % + . > L T E E E E R B b b b z 7 7 w 1 x.XXXXXXXXXXXXXXXXXXXXXXXX                    ",
"                      XXXXXXXXXXXXXXXXXXXXXXXXXX~.W.A.l.l.t.s.s.o.$.$.( S b b b n n b b b - = % % < L L L U E E R L L B b b b 9 7 7 7.XXXXXXXXXXXXXXXXXXXXXXXX                      ",
"                        XXXXXXXXXXXXXXXXXXXXXXXX'.Q.n.l.6.s.s.,.7 ] ( ~ ~ S b v 4 4 v b b x 3 3 % % C P L L U R L L L L B b k 7 7 6.XXXXXXXXXXXXXXXXXXXXXXXX                        ",
"                          XXXXXXXXXXXXXXXXXXXXXX'.Q.n.l.6.s.s.0.7 7 6 ~ ~ ~ D 4 7 7 4 v x 7 7 2 % % % C L L Z B L L L L L M 7 7 7 6.XXXXXXXXXXXXXXXXXXXXXX                          ",
"                            XXXXXXXXXXXXXXXXXXXX`.W.A.l.l.t.s.s._ 7 7 6 ~ ! 8 7 7 7 7 1 7 7 7 7 2 % % % C Z b b B L L L Z b ; 7 7 7 6.XXXXXXXXXXXXXXXXXX                            ",
"                              XXXXXXXXXXXXXXXXXX].W.S.l.7.s.s.' 7 7 7 7 Q 8 w r 7 7 r w w w 7 7 7 2 % % % k b b b B L Z b b b ; 7 7 ` XXXXXXXXXXXXXXXX                              ",
"                                XXXXXXXXXXXXXXXX'.W.n.l.1.f.s.q.7 7 7 r ).P._.}.^.^.}./.P._.t ` 7 7 2 % % % k b b b M b b b b b ; 7 w }.XXXXXXXXXXXX                                ",
"                                  XXXXXXXXXXXXXX`.W.S.l.l.i.s.s.q.7 r ).XXXXXXXXXXXXXXXXXXXX}.oX5.7 1 = % % 3 z b x 7 ; b b b b l 7 ` XXXXXXXXXXXX                                  ",
"                                    XXXXXXXXXXXX`.Q.A.l.t.s.s.s.s.r.).XXXXXXXXXXXXXXXXXXXXXXXXXXXXs % % % % 7 7 9 7 7 7 ; b b l 7 7 7 | XXXXXXXX                                    ",
"                                      XXXXXXXXXX'.W.n.t.s.s.s.s.h.{.XXXXXXXXXXXXXXXXXXXXXXXXXXXXN.% % % % 1 7 7 7 7 7 7 7 ; x 7 7 7 7 7 I.XXXX                                      ",
"                                        XXXXXXXX'.W.k.s.s.s.s.h.{.XXXXXXXXXXXXXXXXXXXXXXXXXXXX(.% % % % % % 1 7 7 6.6.7 7 7 7 7 7 7 7 M.XXXX                                        ",
"                                          XXXXXX`.W.T.s.s.s.h. XXXXXXXXXXXXXXXXXXXXXXXXXXXXXXX.Xf % % % % % 3 1 6.XXXX6.` w ` w 7 7 M.XXXX                                          ",
"                                            XXXX'.W.k.s.s.j. XoXXXXXXXXXXXXXXXXXXXXXXXXXXXXXXXXX.Xp % % % = y x.XXXXXXXXXX}.XX| 7 M.XXXX                                            ",
"                                              XX'.W.k.s.h.{.XXXXXXXXXXXXXXXXXXXXXXXXXXXXXXXXXXXX/.i % y % % x.XXXXXXXXXXXXXXXXXXI.XXXX                                              ",
"                                                Q.W.T.h.{.XXXXXXXXXXXXXXXXXXXXXXXXXXXXXXXXXXXX/.i % % % % x.XXXXXXXXXXXXXXXXXXXXXXXX                                                ",
"                                                  T.h.{.XXXXXXXXXXXXXXXXXXXXXXXXXXXXXXXXXXXXXX/.i % % % l.XXXXXXXXXXXXXXXXXXXXXXXX                                                  ",
"                                                    {.XXXXXXXXXXXXXXXXXXXXXXXXXXXXXXXXXXXXXXXXXX/.i % % u /.XXXXXXXXXXXXXXXXXXXX                                                    ",
"                                                      XXXXXXXXXXXXXXXXXXXXXXXXXXXXXXXXXXXXXXXXXX.Xd % % = N.XXXXXXXXXXXXXXXXXX                                                      ",
"                                                        XXXXXXXXXXXXXXXXXXXXXXXXXXXXXXXXXXXXXX.Xf % % % B.XXXXXXXXXXXXXXXXXX                                                        ",
"                                                          XXXXXXXXXXXXXXXXXXXXXXXXXXXXXXXXXX.Xf % % % p .XXXXXXXXXXXXXXXXX                                                          ",
"                                                            XXXXXXXXXXXXXXXXXXXXXXXXXXXXXXXXXXh % % % % f .XXXXXXXXXXXXX                                                            ",
"                                                              XXXXXXXXXXXXXXXXXXXXXXXXXXXXXXXXXXg % % % % B.XXXXXXXXXX                                                              ",
"                                                                XXXXXXXXXXXXXXXXXXXXXXXXXXXXXXXXXXh % % c.XXXXXXXXXX                                                                ",
"                                                                  XXXXXXXXXXXXXXXXXXXXXXXXXXXXXXXXXXg x.XXXXXXXXXX                                                                  ",
"                                                                    XXXXXXXXXXXXXXXXXXXXXXXXXXXXXXXXXXXXXXXXXXXX                                                                    ",
"                                                                      XXXXXXXXXXXXXXXXXXXXXXXXXXXXXXXXXXXXXXXX                                                                      ",
"                                                                        XXXXXXXXXXXXXXXXXXXXXXXXXXXXXXXXXXXX                                                                        ",
"                                                                          XXXXXXXXXXXXXXXXXXXXXXXXXXXXXXXX                                                                          ",
"                                                                            XXXXXXXXXXXXXXXXXXXXXXXXXXXX                                                                            ",
"                                                                              XXXXXXXXXXXXXXXXXXXXXXXX                                                                              ",
"                                                                                XXXXXXXXXXXXXXXXXXXX                                                                                ",
"                                                                                  XXXXXXXXXXXXXXXX                                                                                  ",
"                                                                                    XXXXXXXXXXXX                                                                                    ",
"                                                                                      XXXXXXXX                                                                                      ",
"                                                                                        XXXX                                                                                        "
};
