/* XPM */
static char *space_ship_xpm[] = {
// 60x40 ufo like ship
"61 40 3 1",
" 	c #FFFFFE",
".	c #F3F1F3",
"+	c #000000",
"                                                             ",
"                              .                              ",
"                             ...                             ",
"                            .....                            ",
"                           .......                           ",
"                          .........                          ",
"                         ...........                         ",
"                        .............                        ",
"                       ...............                       ",
"                      .................                      ",
"                     ...................                     ",
"                    .....................                    ",
"                   .......................                   ",
"                  .........................                  ",
"                 ...........................                 ",
"                .............................                ",
"               ...............................               ",
"              .................................              ",
"             ...................................             ",
"            .....................................            ",
"           .......................................           ",
"          .........................................          ",
"         ...........................................         ",
"        .............................................        ",
"       ...............................................       ",
"      .................................................      ",
"     ...................................................     ",
"    .....................................................    ",
"   .......................................................   ",
"  .........................................................  ",
" ........................................................... ",
".............................................................",
".............................................................",
" ........................................................... ",
"  .........................................................  ",
"   .......................................................   ",
"    .....................................................    ",
"     ...................................................     ",
"      .................................................      ",
"                                                             "
};
