/* XPM */
static char *space_ship_xpm_4[] = {
/* columns rows colors chars-per-pixel */
"64 64 14 1 ",
"  c #131212",
". c #3E3E3E",
"X c #023D65",
"o c #4C0071",
"O c #FF0000",
"+ c #FF8900",
"@ c #FFEE00",
"# c #650096",
"$ c #994CBF",
"% c #B828FF",
"& c #5BBEFF",
"* c #838383",
"= c #A3DAFF",
"- c None",
/* pixels */
"--------------------------&==-----------------------------------",
"--------------------------&===----------------------------------",
"--------------------------&&===---------------------------------",
"--------------------------&&&===--------------------------------",
"--------------------------&&&&===-------------------------------",
"--------------------------&&&&*===------------------------------",
"--------------------------&&&&**===-----------------------------",
"--------------------------&&&&***===----------------------------",
"--------------------------&&&&****===---------------------------",
"--------------------------&&&&&&***===--------------------------",
"--------------------------&&&&&&****===-------------------------",
"--------------------------XXXX&&&&***===------------------------",
"---......-----------------XXXX&&&&****===-----------------------",
"---......-----------------XXXXXX&&&&***===----------------------",
"---......-----------------XXXXXX&&&&****===---------------------",
"---......----------------X####$$$$&&&&***===--------------------",
"------......------------XX####$$$$&&&&****===-------------------",
"------......-----------XXX####$$$$&&&&&&**===-------------------",
"------......----------XXXXOOOO++++%%%&&&******------------------",
"--------.......------XXXXXOOOO++++%%%&&&&&***==-----------------",
"--------.......-----XXXXXXOOOO++++%%%&&&&&***======-------------",
"--------.......---XXXXOOOO++++@@@@ooo$$$&&  ***======-----------",
"--------.......XXXXXXXOOOO++++@@@@ooo$$$&&* ******=====---------",
"--------.......XXXXXXXOOOO++++@@@@ooo$$$&&*   *******===--------",
"--------XXXX..............OOOO++++$$$===****    *****X====------",
"--------XXXX..............OOOO++++$$$===**       ****XXX===-----",
"--------XXXX..............OOOO++++$$$===*  *  *   ***XXXX===----",
"-----XXXXXOOOOO+++++    ......=======***  **       *=&&&&&&==---",
"----XXXXXXOOOOO+++++    ......=======*** ***     **==&&&&&&===--",
"-XXXXXXXXXOOOOO+++++    ......=======*      *  *****=&&&&&&&==&-",
"-XXXXOOOOO+++++@@@@@    ..**#####*****            ***XXXXXXXX=&-",
"-XXXXOOOOO+++++@@@@@    ..*##########***            *XXXXXXXX==-",
"-XXXXOOOOO+++++@@@@@    ..*##########***   ** *  ** *XXXXXXXX==-",
"-XXXXOOOOO+++++@@@@@    ..**#####*****    *** *    **XXXXXXXX=&-",
"-XXXXXXXXXOOOOO+++++    ......=======*             *=$$$$$$$==&-",
"----XXXXXXOOOOO+++++    ......=======**   *   *   *==$$$$$$===--",
"-----XXXXXOOOOO+++++    ......=======**  *       ***=$$$$$$==---",
"--------XXXX..............OOOO++++###== *  *      ***XXXX===----",
"--------XXXX..............OOOO++++###==       *   ***XXX===-----",
"--------XXXX..............OOOO++++###===**   *   * **X====------",
"--------.......XXXXXXXOOOO++++@@@@ooo$$$&&*  ********===--------",
"--------.......XXXXXXXOOOO++++@@@@ooo$$$&&*   *****====---------",
"--------.......---XXXXOOOO++++@@@@ooo$$$&&* ***======-----------",
"--------.......-----XXXXXXOOOO++++$$$&&&&&* *======-------------",
"------.........------XXXXXOOOO++++$$$&&&&&***==-----------------",
"------......----------XXXXOOOO++++$$$&&&******------------------",
"------......-----------XXX####$$$$&&&&&&**===-------------------",
"------......------------XX####$$$$&&&&****===-------------------",
"---......----------------X####$$$$&&&&* *===--------------------",
"---......-----------------XXXXXX&&&&**  ===---------------------",
"---......-----------------XXXXXX&&&&*  ===----------------------",
"---......-----------------XXXX&&&&**  ===-----------------------",
"--------------------------XXXX&&&&*  ===------------------------",
"--------------------------&&&&&&**  ===-------------------------",
"--------------------------&&&&&&** ===--------------------------",
"--------------------------&&&&**  ===---------------------------",
"--------------------------&&&&*  ===----------------------------",
"--------------------------&&&&* ===-----------------------------",
"--------------------------&&&&* ==------------------------------",
"--------------------------&&&&===-------------------------------",
"--------------------------&&&===--------------------------------",
"--------------------------&&===---------------------------------",
"--------------------------&===----------------------------------",
"--------------------------&==-----------------------------------"
};
