/* XPM */
static char *space_ship_xpm_3[] = {
/* columns rows colors chars-per-pixel */
"64 64 14 1 ",
"  c #131212",
". c #3E3E3E",
"X c #023D65",
"o c #4C0071",
"O c #FF0000",
"+ c #FF8900",
"@ c #FFEE00",
"# c #650096",
"$ c #994CBF",
"% c #B828FF",
"& c #5BBEFF",
"* c #838383",
"= c #A3DAFF",
"- c None",
/* pixels */
"-----------------------------------==&--------------------------",
"----------------------------------===&--------------------------",
"---------------------------------===&&--------------------------",
"--------------------------------===&&&--------------------------",
"-------------------------------===&&&&--------------------------",
"------------------------------== *&&&&--------------------------",
"-----------------------------=== *&&&&--------------------------",
"----------------------------===  *&&&&--------------------------",
"---------------------------===  **&&&&--------------------------",
"--------------------------=== **&&&&&&--------------------------",
"-------------------------===  **&&&&&&--------------------------",
"------------------------===  *&&&&XXXX--------------------------",
"-----------------------===  **&&&&XXXX-----------------......---",
"----------------------===  *&&&&XXXXXX-----------------......---",
"---------------------===  **&&&&XXXXXX-----------------......---",
"--------------------===* *&&&&$$$$####X----------------......---",
"-------------------===****&&&&$$$$####XX------------......------",
"-------------------===**&&&&&&$$$$####XXX-----------......------",
"------------------******&&&$$$++++OOOOXXXX----------......------",
"-----------------==***&&&&&$$$++++OOOOXXXXX------.........------",
"-------------======* *&&&&&$$$++++OOOOXXXXXX-----.......--------",
"-----------======*** *&&$$$ooo@@@@++++OOOOXXXX---.......--------",
"---------====*****   *&&$$$ooo@@@@++++OOOOXXXXXXX.......--------",
"--------===********  *&&$$$ooo@@@@++++OOOOXXXXXXX.......--------",
"------====X** *   *   **===###++++OOOO..............XXXX--------",
"-----===XXX***   *       ==###++++OOOO..............XXXX--------",
"----===XXXX***      *  * ==###++++OOOO..............XXXX--------",
"---==$$$$$$=***       *  **=======......    +++++OOOOOXXXXX-----",
"--===$$$$$$==*   *   *   **=======......    +++++OOOOOXXXXXX----",
"-&==$$$$$$$=*             *=======......    +++++OOOOOXXXXXXXXX-",
"-&=XXXXXXXX**    * ***    *****#####**..    @@@@@+++++OOOOOXXXX-",
"-==XXXXXXXX* **  * **   ***##########*..    @@@@@+++++OOOOOXXXX-",
"-==XXXXXXXX*            ***##########*..    @@@@@+++++OOOOOXXXX-",
"-&=XXXXXXXX***            *****#####**..    @@@@@+++++OOOOOXXXX-",
"-&==&&&&&&&=*****  *      *=======......    +++++OOOOOXXXXXXXXX-",
"--===&&&&&&==**     *** ***=======......    +++++OOOOOXXXXXX----",
"---==&&&&&&=*       **  ***=======......    +++++OOOOOXXXXX-----",
"----===XXXX***   *  *  *===$$$++++OOOO..............XXXX--------",
"-----===XXX****       **===$$$++++OOOO..............XXXX--------",
"------====X*****    ****===$$$++++OOOO..............XXXX--------",
"--------===*******   *&&$$$ooo@@@@++++OOOOXXXXXXX.......--------",
"---------=====****** *&&$$$ooo@@@@++++OOOOXXXXXXX.......--------",
"-----------======***  &&$$$ooo@@@@++++OOOOXXXX---.......--------",
"-------------======***&&&&&%%%++++OOOOXXXXXX-----.......--------",
"-----------------==***&&&&&%%%++++OOOOXXXXX------.......--------",
"------------------******&&&%%%++++OOOOXXXX----------......------",
"-------------------===**&&&&&&$$$$####XXX-----------......------",
"-------------------===****&&&&$$$$####XX------------......------",
"--------------------===***&&&&$$$$####X----------------......---",
"---------------------===****&&&&XXXXXX-----------------......---",
"----------------------===***&&&&XXXXXX-----------------......---",
"-----------------------===****&&&&XXXX-----------------......---",
"------------------------===***&&&&XXXX--------------------------",
"-------------------------===****&&&&&&--------------------------",
"--------------------------===***&&&&&&--------------------------",
"---------------------------===****&&&&--------------------------",
"----------------------------===***&&&&--------------------------",
"-----------------------------===**&&&&--------------------------",
"------------------------------===*&&&&--------------------------",
"-------------------------------===&&&&--------------------------",
"--------------------------------===&&&--------------------------",
"---------------------------------===&&--------------------------",
"----------------------------------===&--------------------------",
"-----------------------------------==&--------------------------"
};
