/* XPM */
static char *space_ship_xpm[] = {
/* columns rows colors chars-per-pixel */
"64 64 14 1 ",
"  c #131212",
". c #3E3E3E",
"X c #023D65",
"o c #4C0071",
"O c #FF0000",
"+ c #FF8900",
"@ c #FFEE00",
"# c #650096",
"$ c #994CBF",
"% c #B828FF",
"& c #5BBEFF",
"* c #838383",
"= c #A3DAFF",
"- c None",
/* pixels */
"-----------------------------&&==&&-----------------------------",
"----------------------------========----------------------------",
"---------------------------===XXXX===---------------------------",
"--------------------------===&XXXX$===--------------------------",
"-------------------------==&&&XXXX$$$==-------------------------",
"------------------------===&&&XXXX$$$===------------------------",
"------------------------==X&&&XXXX$$$X==------------------------",
"-----------------------==XX&&&XXXX$$$XX==-----------------------",
"----------------------===XX&&&XXXX$$$XX===----------------------",
"----------------------==XXX&&&XXXX$$$XXX==----------------------",
"---------------------==****===****===****==---------------------",
"---------------------==*****=**  **=*****==---------------------",
"--------------------===**** *** *  **** **==--------------------",
"--------------------==****  **  *   *  ***==--------------------",
"--------------------==***    *          **==--------------------",
"--------------------==**     *          **==--------------------",
"-------------------==***  *     ** *  * ***==-------------------",
"------------------*==**                ** *==*------------------",
"----------------==*****      *  **        ****==----------------",
"---------------===***   * ***   **   *      **===---------------",
"--------------====*** ***  **    * *    ******====--------------",
"-------------===***&&&&&**  *       *  *&&&&&***===-------------",
"------------===****&&&&&***          * *&&&&&****===------------",
"-----------===***&&&&$$$===**  **      =$$$&&&&*  ===-----------",
"----------===****&&&&$$$===**  **  **===$$$&&&&**  ===----------",
"---------===***&&&&&&$$$===**********===$$$&&&&&&*  ===---------",
"--------===****&&&%%%ooo$$$===*##*===###ooo$$$&&&**  ===--------",
"-------===***&&&&&%%%ooo$$$===*##*===###ooo$$$&&&&&*  ===-------",
"------===****&&&&&%%%ooo$$$===*##*===###ooo$$$&&&&&**  ===------",
"-----===***&&&&$$$+++@@@+++===*##*===+++@@@+++$$$&&&&** ===-----",
"----===****&&&&$$$+++@@@+++===####===+++@@@+++$$$&&&&**  ===----",
"---===***&&&&XX$$$+++@@@+++===####===+++@@@+++$$$XX&&&&*   ==---",
"--===****&&&&XX$$$+++@@@+++===####===+++@@@+++$$$XX&&&&****===--",
"-===&&&&&&&XXXX###OOO+++OOO...####...OOO+++OOO###XXXX&&&&&&&===-",
"===&&&&&&&&XXXX###OOO+++OOO...####...OOO+++OOO###XXXX&&&&&&&&===",
"==&&&&&&&&&XXXX###OOO+++OOO...*##*...OOO+++OOO###XXXX&&&&&&&&&==",
"&&&&&&&&&&&XXXX###OOO+++OOO...****...OOO+++OOO###XXXX&&&&&&&&&&&",
"---------------XXXXXXOOO................OOOXXXXXX---------------",
"----------------XXXXXOOO................OOOXXXXX----------------",
"-----------------XXXXOOO...          ...OOOXXXX-----------------",
"------------------XXXOOO...          ...OOOXXX------------------",
"-------------------XXXXX...          ...XXXXX-------------------",
"--------------------XXXX...          ...XXXX--------------------",
"---------------------XXX...+++@@@@+++...XXX---------------------",
"---------------------XXX...+++@@@@+++...XXX---------------------",
"----------------------XX...+++@@@@+++...XX----------------------",
"----------------------XX...+++@@@@+++...XX----------------------",
"----------------------XX...+++@@@@+++...XX----------------------",
"-------------------........OOO++++OOO........-------------------",
"-------------------........OOO++++OOO........-------------------",
"-------------------........OOO++++OOO........-------------------",
"----------------........XXXOOO++++OOOXXX........----------------",
"----------------........XXXOOO++++OOOXXX........----------------",
"----------------........XXXXXXOOOOXXXXXX........----------------",
"------------............XXXXXXOOOOXXXXXX............------------",
"------------.......--------XXXOOOOXXX-------........------------",
"------------.......--------XXXOOOOXXX-------........------------",
"------------....-----------XXXOOOOXXX-----------....------------",
"------------....------------XXXXXXXX------------....------------",
"------------....-------------XXXXXX-------------....------------",
"-----------------------------XXXXXX-----------------------------",
"-----------------------------XXXXXX-----------------------------",
"----------------------------------------------------------------",
"----------------------------------------------------------------"
};
