/* XPM */
static char *space_ship_xpm_8[] = {
/* columns rows colors chars-per-pixel */
"90 90 185 2 ",
"   c None",
".  c #131212",
"X  c #1C1B1B",
"o  c #201F1F",
"O  c #242323",
"+  c #2C2B2B",
"@  c #262729",
"#  c #343333",
"$  c #3E3E3E",
"%  c #383737",
"&  c #2A2F33",
"*  c #1C1F21",
"=  c #523739",
"-  c #742D2D",
";  c #62263F",
":  c #633232",
">  c #163D58",
",  c #2D3E49",
"<  c #343E45",
"1  c #313252",
"2  c #361D7F",
"3  c #023D65",
"4  c #15316E",
"5  c #203164",
"6  c #4E2B4F",
"7  c #4C0071",
"8  c #540879",
"9  c #3E4449",
"0  c #1C5175",
"q  c #204D6C",
"w  c #444343",
"e  c #4B4B4B",
"r  c #484747",
"t  c #535353",
"y  c #5C5B5B",
"u  c #585757",
"i  c #4D4E58",
"p  c #566773",
"a  c #6B6B6B",
"s  c #616161",
"d  c #7B7B7B",
"f  c #737373",
"g  c #6E7275",
"h  c #495D6B",
"j  c #A81C1C",
"k  c #921A2C",
"l  c #A61623",
"z  c #952222",
"x  c #8C2525",
"c  c #E5060B",
"v  c #EB0606",
"b  c #FF0000",
"n  c #FF1A00",
"m  c #FA2602",
"M  c #FF3400",
"N  c #FF3B00",
"B  c #81490A",
"V  c #A8481C",
"C  c #81780A",
"Z  c #A8671C",
"A  c #FF5400",
"S  c #FF7B00",
"D  c #FC6F01",
"F  c #9C0060",
"G  c #972C65",
"H  c #AB2A6B",
"J  c #864D4D",
"K  c #BE627A",
"L  c #B05C77",
"P  c #FF8900",
"I  c #FF8700",
"U  c #FF9C00",
"Y  c #FFA200",
"T  c #FFAF00",
"R  c #FFB400",
"E  c #FFC400",
"W  c #FFE300",
"Q  c #FFEE00",
"!  c #5B0286",
"~  c #5B0691",
"^  c #650096",
"/  c #6B1A92",
"(  c #422E88",
")  c #732997",
"_  c #7C21A8",
"`  c #34688B",
"'  c #2975A8",
"]  c #544596",
"[  c #60469D",
"{  c #74428C",
"}  c #46718E",
"|  c #547C97",
" . c #49728D",
".. c #7B7F81",
"X. c #6F7B83",
"o. c #457EA5",
"O. c #6860A6",
"+. c #7874D2",
"@. c #8639AB",
"#. c #817A85",
"$. c #BA6081",
"%. c #994CBF",
"&. c #C848A3",
"*. c #B828FF",
"=. c #A420E4",
"-. c #9258C6",
";. c #994EC0",
":. c #8574D3",
">. c #8D71CE",
",. c #876DF6",
"<. c #3385BA",
"1. c #678396",
"2. c #7C8E99",
"3. c #7F888E",
"4. c #5C95BB",
"5. c #518EB7",
"6. c #678AA2",
"7. c #6B87A5",
"8. c #7794A8",
"9. c #769CB5",
"0. c #6590BE",
"q. c #388CC3",
"w. c #4299D3",
"e. c #579AC6",
"r. c #7B83DE",
"t. c #6DA3C7",
"y. c #6BACD8",
"u. c #7394EF",
"i. c #4CA8E5",
"p. c #5BBEFF",
"a. c #5EBAF5",
"s. c #62B3E8",
"d. c #67A9F6",
"f. c #63B0F7",
"g. c #5FC0FF",
"h. c #6CC5FF",
"j. c #65C1FF",
"k. c #7ACAFF",
"l. c #838383",
"z. c #83898D",
"x. c #82878A",
"c. c #878E92",
"v. c #899399",
"b. c #989898",
"n. c #899CA9",
"m. c #8FA9BB",
"M. c #91A9B8",
"N. c #AEAEAE",
"B. c #B4B4B4",
"V. c #CCB68C",
"C. c #958AD8",
"Z. c #93AEC1",
"A. c #97BAD1",
"S. c #98BCD5",
"D. c #90BAD7",
"F. c #A1B7C6",
"G. c #9F9AE2",
"H. c #A0B3ED",
"J. c #A0ADEB",
"K. c #BECED8",
"L. c #9ECEED",
"P. c #9AC7E5",
"I. c #9ED8FF",
"U. c #99D4FB",
"Y. c #8DD0FC",
"T. c #A3DAFF",
"R. c #ABDDFF",
"E. c #A1D3F7",
"W. c #BDE5FF",
"Q. c #B2E0FF",
"!. c #C9C9C9",
"~. c #D3D4D5",
"^. c #CFDAE2",
"/. c #D0DBE2",
"(. c #C8E9FF",
"). c #C6E8FF",
"_. c #D3EDFF",
"`. c #DBECF7",
"'. c #E1F3FF",
"]. c #EBF7FF",
"[. c #EEF8FF",
"{. c #F2F2F2",
"}. c #F3FAFF",
"|. c None",
" X c #EEEEEE",
/* pixels */
"                                                                                          |.                                                                                        ",
"                                                                                        |.|.|.                                                                                      ",
"                                                                                      |.|.|.|.|.                                                                                    ",
"                                                                                    |.|.|.|.|.|.|.                                                                                  ",
"                                                                                  |.|.|.|.|.|.|.|.|.                                                                                ",
"                                                                                |.|.|.|.|.|.|.|.|.|.|.                                                                              ",
"                                                                              |.|.|.|.|.|.|.|.|.|.|.|.|.                                                                            ",
"                                                                            |.|.|.|.|.|.|.|.|.|.|.|.|.|.|.                                                                          ",
"                                                                          |.|.|.|.|.|.|.|.|.|.|.|.|.|.|.|.|.                                                                        ",
"                                                                        |.|.|.|.|.|.|.|.|.|.|.|.|.|.|.|.|.|.|.                                                                      ",
"                                                                      |.|.|.|.|.|.|.|.|.|.|.|.|.|.|.|.|.|.|.|.|.                                                                    ",
"                                                                    |.|.|.|.|.B.|.|.|.|.|.|.|.|.|.|.|.|.|.|.|.|.|.                                                                  ",
"                                                                  |.|.|.|.|.b.% d |.|.|.|.|.|.|.|.|.|.|.|.|.|.|.|.|.                                                                ",
"                                                                |.|.|.|.|.b.$ $ $ f |.|.|.|.|.|.|.|.|.|.|.|.|.|.|.|.|.                                                              ",
"                                                              |.|.|.|.|.{.a $ $ $ $ d |.|.|.|.|.|.|.|.|.|.|.|.|.|.|.|.|.                                                            ",
"                                                            |.|.|.|.|.|.|.{.a w $ $ $ b.|.|.|.|.|.|.|.|.|.|.|.|.|.|.|.|.|.                                                          ",
"                                                          |.|.|.|.|.|.|.|.|.N.$ $ $ a  X|.|.|.|.|.|.|.|.|.|.|.|.|.|.|.|.|.|.                                                        ",
"                                                        |.|.|.|.|.|.|.|.|.B.$ $ $ a  X|.|.|.|.|.|.|.|.|.|.|.|.|.|.|.|.|.|.|.|.                                                      ",
"                                                      |.|.|.|.|.|.|.|.|. Xe $ $ = K.|.|.|.|.|.|.|.|.|.|.|.|.|.|.|.|.|.|.|.|.|.|.                                                    ",
"                                                    |.|.|.|.|.|.|.|.|.|.|.~.w $ $ w ~.|.|.|.|.|.|.|.|.|.|.|.|.|.|.|.|.|.|.|.|.'.h.                                                  ",
"                                                  |.|.|.|.|.|.|.|.|.|.|.|.b.w $ $ $ t {.|.|.|.|.|.|.|.|.|.|.|.|.|.|.|.|.|.|.'.h.Y.T.                                                ",
"                                                |.|.|.|.|.|.|.|.|.|.|.|.b.$ $ $ $ w !.|.|.|.|.|.|.|.|.|.|.|.|.|.|.|.|.|.|.'.h.j.I.T.].                                              ",
"                                              |.|.m.| |.|.|.|.|.|.|.|.b.$ $ $ $ $ !.|.|.|.|.|.|.|.|.|.|.|.|.|.|.|.|.|.|.'.h.p.j.T.T.].|.                                            ",
"                                            |.|.m.3 3 | K.K.F.|.|.|.n.$ $ $ $ $ $ a {.|.|.|.|.|.|.|.|.|.|.|.|.|.|.|.|.'.h.p.p.p.U.T.|.|.|.                                          ",
"                                          |.|.m.3 3 3 3 3 q 3 7.|.9.3 > $ $ $ $ $ $ a }.|.|.|.|.|.|.|.|.|.|.|.|.|.|.'.h.p.p.p.g.I.T.}.|.|.|.                                        ",
"                                        |.|.m.3 3 3 3 3 6 3 3 3 ` 3 3 3 > $ $ $ $ < N.|.|.|.|.|.|.|.|.|.|.|.|.|.|.'.h.p.p.p.g.y.T.T.[.|.|.|.|.                                      ",
"                                      |.|.|.| 3 3 3 3 l b ; 3 3 3 3 3 3 3 < $ $ = N.|.|.|.|.|.|.|.|.|.|.|.|.|.|.`.h.p.p.p.g.t.c.L.T.}.|.|.|.|.|.                                    ",
"                                    |.|.|.|.|.| 3 3 l b b b ; q 3 l k 3 < $ $ $ > 6.|.|.|.|.|.|.|.|.|.|.|.|.|.^.0 w.p.p.p.t.l.l.L.R.|.|.|.|.|.|.|.                                  ",
"                                  |.|.|.|.|.|.K.3 6 b b b b b ; l b b l $ $ $ < 3 3 6.F.^.|.|.}.|.|.|.|.|.|.^.0 3 3 q.p.p.2.3.z.T.T.[.|.|.|.|.|.|.|.                                ",
"                                |.|.|.|.|.|.|.K.3 3 ; b b b b A M b b b j $ $ $ , 3 3 3 0 6.1.} | 6.| } 6.7.0 3 3 3 0 i.p.s.x.c.E.T.].|.|.|.|.|.|.|.|.                              ",
"                              |.|.|.|.|.|.|.|.F.3 3 3 ; b b A P P M b b b V $ $ $ , 3 3 3 3 3 3 3 3 3 3 4 ~ 2 3 3 3 ' p.g.9.l.l.L.R.|.|.|.|.|.|.|.|.|.|.                            ",
"                            |.|.|.|.|.|.|.|.|.|.8.3 3 3 ; A P P P P M b A P Z $ $ $ , 3 3 3 k 1 3 3 3 5 ~ ^ ^ 2 3 3 q.g.g.8.l.z.E.T.[.|.|.|.|.|.|.|.|.|.|.                          ",
"                          |.|.|.|.|.|.|.|.|.|.|.|.` 3 3 l M P P P P P I I P P Z $ $ $ 9 3 l b c 1 3 1 v F ^ ^ ^ ( 3 3 i.p.p.3.v.T.T.].|.|.|.|.|.|.|.|.|.|.|.                        ",
"                        |.|.|.|.|.|.|.|.|.|.|.|.8.3 3 l b b M P P P E Q T P P P Z $ $ $ = b b b c 6 c b b F ^ _ %.] <.p.p.8.l.x.L.R.}.|.|.|.|.|.|.|.|.|.|.|.|.                      ",
"                      |.|.|.|.|.|.|.|.|.|.|.|.n.3 3 3 k b b b M P E Q Q Q T P P B @ $ $ $ - b b n D n b b b H %.%.%.r.p.p.9.l.l.L.R.|.|.|.|.|.|.|.|.|.|.|.|.|.|.                    ",
"                    |.|.|.|.|.|.|.|.|.|.|.|.b.9 > 3 3 q l b b b S Q Q Q Q Q T B . . @ $ $ $ - n S P S n b N P K %.%.%.d.p.a.3.v.T.I.].|.|.|.|.|.|.|.|.|.|.|.|.|.|.                  ",
"                  |.|.|.|.|.{.|.|.|.B.b.|.b.$ $ $ > 3 , $ j b A P T Q Q Q Q C . . . . @ $ $ : m I P P S A I P P K ;.u.p.a.2.3.z.E.T.[.|.|.|.|.|.|.|.|.|.|.|.|.|.|.|.                ",
"                |.|.|.|.}.b.a {.|.B.$ 9 a $ $ $ = 9 < $ $ $ V P P P T Q Q C . . . . . % $ : c b m I P R W U P P P >.g.p.p.t.l.l.L.R.|.|.|.|.|.|.|.|.|.|.|.|.|.|.|.|.|.              ",
"              |.|.|.|.|.b.% $ a N.$ $ $ $ $ $ $ $ $ $ $ $ $ $ Z P P P T C . . . . . # $ $ x b b b m R Q Q W U P &.*.u.f.p.s.l.c.E.T.[.|.|.|.|.|.|.|.|.|.|.|.|.|.|.|.|.|.            ",
"            |.|.|.|.|.B.$ $ $ $ $ < = $ $ $ $ $ $ $ $ $ < $ $ $ Z P I B . . . . . % $ $ $ $ z b b N Y Q Q Q W &.*.*.*.d.a.3.l.v.T.T.].|.|.|.|.|.|.|.|.|.|.|.|.|.|.|.|.|.|.          ",
"          |.|.|.|.|.|.|.d $ $ $ $ $ $ $ $ $ $ $ $ $ $ > 3 < $ $ $ Z B . . . . . % $ e t 6 $ $ z N P P Y Q Q J ! =.*.,.g.g.y.3.l.L.R.}.|.|.|.|.|.|.|.|.|.|.|.|.|.|.|.|.|.|.|.        ",
"        |.|.|.|.|.|.|.|.|.f $ $ $ s !.r $ r !.a $ $ N.6.3 3 , < $ $ O . . . . % $ e ..#.i < $ 1.V.P P P Y J 7 7 8 ,.p.p.g.y.l.l.L.R.}.|.|.|.|.|.|.|.|.|.|.|.|.|.|.|.|.|.|.|.|.      ",
"      |.|.|.|.|.|.|.|.|.|.|.d $ a  X|.~.u !.|. Xa N.|.|.1.3 3 9 $ $ $ O . . # $ e d ) / ^ 6 1.I.T.V.I P $.@.7 7 ) -.d.p.a.3.l.M.T.T.].|.|.|.|.|.|.|.|.|.|.|.|.|.|.|.|.|.|.|.|.|.    ",
"    |.|.|.|.|.|.|.|.|.|.|.|.|.b.{.|.|.|.{.|.|.|.}.|.|.|.F.3 3 3 , $ $ 9 @ # $ $ t ../ ^ ^ ~ C.I.I.T.V.K %.%.@.) %.%.-.d.p.s.l.A.T.T.[.|.|.|.|.|.|.|.|.|.|.|.|.|.|.|.|.|.|.|.|.|.|.  ",
"  |.|.|.|.|.|.|.|.|.|.|.|.|.|.|.|.|.|.|.|.|.|.|.|.|.|.|.^.0 3 3 3 = $ $ $ $ $ $ $ i ~ ^ ^ ^ ^ C.T.T.T.G.%.%.G.H.;.%.:.g.p.t.l.l.S.).|.|.|.|.|.|.|.|.|.|.|.|.|.|.|.|.|.|.|.|.|.|.|.|.",
"|.|.|.|.|.|.|.|.|.|.|.|.|.|.|.|.|.|.|.|.|.|.|.|.|.|.|.|.|.1.3 3 l b - $ $ : x $ 9 = 6 ^ ^ ^ ^ / A.T.T.T.G.G.E.T.H.:.p.p.` f l.l.l.~.|.|.|.|.|.|.|.|.|.|.|.|.|.|.|.|.|.|.|.|.|.|.|.|.",
"  |.|.|.|.|.|.|.|.|.|.|.|.|.|.|.|.|.|.|.|.|.|.|.|.|.|.|.|.6.3 k b b b - : c b z $ $ 1.C.^ ^ ^ / #.A.T.T.Z.m.T.E.S.8.g.t.e o d n.P.~.|.|.|.|.|.|.|.|.|.|.|.|.|.|.|.|.|.|.|.|.|.|.|.  ",
"    |.|.|.|.|.|.|.|.|.|.|.|.|.|.|.|.|.|.|.|.|.|.|.|.|.|.|.} 3 1 c b b n m b b b z 1.E.T.C./ / ^ / ..A.Z.l.l.m.A.3.l.3.f o u l.L.T._.|.|.|.|.|.|.|.|.|.|.|.|.|.|.|.|.|.|.|.|.|.|.    ",
"      |.|.|.|.|.|.|.|.|.|.|.|.|.|.|.|.|.|.|.|.|.|.|.|.|.|.| 3 3 1 v n S I m b b N V.T.T.T.A.#./ ^ / l.a $ l.y w $ w t a . y l.z.E._.|.|.|.|.|.|.|.|.|.|.|.|.|.|.|.|.|.|.|.|.|.      ",
"        |.|.|.|.|.|.|.|.|.|.|.|.|.|.|.|.|.|.|.|.|.|.|.|.|.6.3 3 3 6 D P P I m N P P V.T.T.T.A.#./ ) d @ . + . + # o o + . . d v.T.T._.|.|.|.|.|.|.|.|.|.|.|.|.|.|.|.|.|.|.|.        ",
"          |.|.|.|.|.|.|.|.|.|.|.|.|.|.|.|.|.|.|.|.|.|.|.|.| 3 3 1 v n S P P R Y P P P V.T.T.T.A.l.l.l.a X . + l.l.d $ . . + l.l.M.T.T._.|.|.|.|.|.|.|.|.|.|.|.|.|.|.|.|.|.          ",
"            |.|.|.|.|.|.|.|.|.|.|.|.|.|.|.|.|.|.|.|.|.|.|.} 3 5 c b b n S R Q Q Y P P G :.T.T.Z.a O a s . . . % l.$ . . X . % l.l.Z.T._.|.|.|.|.|.|.|.|.|.|.|.|.|.|.|.|.            ",
"              |.|.|.|.|.|.|.|.|.|.|.|.|.|.|.|.|.|.|.|.|.|.6.4 ~ F b b b A W Q Q Q Y G ^ ^ :.m.l.$ . X . . . . . e . . # e . r l.l.S.T.R.].|.|.|.|.|.|.|.|.|.|.|.|.|.|.              ",
"                |.|.|.|.|.|.|.|.|.|.|.|.|.|.|.|.|.|.|.|.|.7.~ ^ ^ F b N P U W Q Q J ! ^ ~ >.m.l.$ . . . X X . . w . . . . . w l.l.l.S.T.].|.|.|.|.|.|.|.|.|.|.|.|.|.                ",
"                  |.|.|.|.|.|.|.|.|.|.|.|.|.|.|.|.|.|.|.^.0 2 ^ ^ ^ H P P P U W J 7 7 ^ :.I.I.e . . . O d f e . . . # . . . % l.l.l.x.E.(.|.|.|.|.|.|.|.|.|.|.|.|.                  ",
"                    |.|.|.|.|.|.|.|.|.|.|.|.|.|.|.|.|.^.0 3 3 2 ^ _ %.K P P P L 8 7 7 ) H.T.h & w e r # $ l.s . . . y y r # w l.l.d } T.R.|.|.|.|.|.|.|.|.|.|.|.                    ",
"                      |.|.|.|.|.|.|.|.|.|.|.|.|.|.|._.0 3 3 3 3 ( %.%.%.K I L %.@.8 ) ;.;.J.X.X + # + O . # . y # . . u l.l.g v.3.q ` I.T.}.|.|.|.|.|.|.|.|.|.                      ",
"                        |.|.|.|.|.|.|.|.|.|.|.|.|.'.h.q.3 3 3 3 3 ] %.%.%.C.%.%.%.+.-.;.;.:.8.t . * = . . . # u . . . + l.v.T.E.5.3 3 4.Q.|.|.|.|.|.|.|.|.|.                        ",
"                          |.|.|.|.|.|.|.|.|.|.|.'.h.g.g.w.3 ' <.3 <.r.%.u.p.u.%.r.p.d.-.:.p.p.p . * % . . y + . . w e + d v.I.h.p.<.3 5.T.W.|.|.|.|.|.|.|.                          ",
"                            |.|.|.|.|.|.|.|.|.'.h.p.g.g.g.i.g.g.i.p.p.d.g.p.g.d.p.p.p.a.p.p.t.a . . . . . O . . . X a O r d e.g.p.p.<.o.T.).|.|.|.|.|.|.                            ",
"                              |.|.|.|.|.|.|.'.j.p.p.p.p.g.g.g.g.g.g.g.g.a.g.g.a.p.p.a.p.g.t.f O . # t t o . . . X . y e 3.q 3 q.g.p.p.k.T.).|.|.|.|.|.                              ",
"                                |.|.|.|.|.'.h.p.p.p.g.t.3.g.4.8.g.8.4.g.2.t.i.3.y.y.3.y.t.f o + * l.r # . . # a ..X.b.#.q 3 3 3 q.p.p.p.Y.W.|.|.|.|.                                ",
"                                  |.|.|.'.h.g.g.g.g.t.g e t f 3.i t y i t y t e l.l.l.l.l.t u l.w a l.# . . # #.v.E.E.O.3 3 3 3 3 q.p.k.T.).|.|.|.                                  ",
"                                    |.'.j.j.j.g.g.y.g O & & O 9 & * . & & . @ 9 z.l.m.A.l.l.n.P.z.c.l...y e d #.v.E.>.;.] 3 3 3 3 3 q.k.T.).|.|.                                    ",
"                                      h.Y.U.T.U.U.T.p 1.U.U.D.P.T.P.D.I.L.D.L.I.L.L.T.T.A.l.P.T.E.T.M.l.l.# a l.3.O.%.%.%.] 3 3 3 3 3 e.T.W.|.                                      ",
"                                        T.T.T.R.R.T.T.R.T.T.R.T.T.T.R.T.T.R.T.T.R.R.T.T.W.~.~._._.T.E.M.l.l.l...q 3 ] %.%.%.[ 4 3 3 3 4.U.Y.                                        ",
"                                          ].].|.}.].[.|.].].|.[.].[.|.].].|.[.].}.}.].[.|.|.|.|.|._.T.T.P.S.z.} ` 3 3 ] %.%.%.[ 3 3 4.T.j.                                          ",
"                                            |.|.|.|.|.|.|.|.|.|.|.|.|.|.|.|.|.|.|.|.|.|.|.|.|.|.|.|._._.Q.T.E.T.T.4.5.o.C.%.C.C.0.4.T.T.                                            ",
"                                              |.|.|.|.|.|.|.|.|.|.|.|.|.|.|.|.|.|.|.|.|.|.|.|.|.|.|.|.|.}.].(.R.T.Q.T.T.T.J.T.T.T.U.j.                                              ",
"                                                |.|.|.|.|.|.|.|.|.|.|.|.|.|.|.|.|.|.|.|.|.|.|.|.|.|.|.|.|.|.|.|.}.|.W.).).W.).(.W.Y.                                                ",
"                                                  |.|.|.|.|.|.|.|.|.|.|.|.|.|.|.|.|.|.|.|.|.|.|.|.|.|.|.|.|.|.|.|.|.|.|.|.|.|.|.|.                                                  ",
"                                                    |.|.|.|.|.|.|.|.|.|.|.|.|.|.|.|.|.|.|.|.|.|.|.|.|.|.|.|.|.|.|.|.|.|.|.|.|.|.                                                    ",
"                                                      |.|.|.|.|.|.|.|.|.|.|.|.|.|.|.|.|.|.|.|.|.|.|.|.|.|.|.|.|.|.|.|.|.|.|.|.                                                      ",
"                                                        |.|.|.|.|.|.|.|.|.|.|.|.|.|.|.|.|.|.|.|.|.|.|.|.|.|.|.|.|.|.|.|.|.|.                                                        ",
"                                                          |.|.|.|.|.|.|.|.|.|.|.|.|.|.|.|.|.|.|.|.|.|.|.|.|.|.|.|.|.|.|.|.                                                          ",
"                                                            |.|.|.|.|.|.|.|.|.|.|.|.|.|.|.|.|.|.|.|.|.|.|.|.|.|.|.|.|.|.                                                            ",
"                                                              |.|.|.|.|.|.|.|.|.|.|.|.|.|.|.|.|.|.|.|.|.|.|.|.|.|.|.|.                                                              ",
"                                                                |.|.|.|.|.|.|.|.|.|.|.|.|.|.|.|.|.|.|.|.|.|.|.|.|.|.                                                                ",
"                                                                  |.|.|.|.|.|.|.|.|.|.|.|.|.|.|.|.|.|.|.|.|.|.|.|.                                                                  ",
"                                                                    |.|.|.|.|.|.|.|.|.|.|.|.|.|.|.|.|.|.|.|.|.|.                                                                    ",
"                                                                      |.|.|.|.|.|.|.|.|.|.|.|.|.|.|.|.|.|.|.|.                                                                      ",
"                                                                        |.|.|.|.|.|.|.|.|.|.|.|.|.|.|.|.|.|.                                                                        ",
"                                                                          |.|.|.|.|.|.|.|.|.|.|.|.|.|.|.|.                                                                          ",
"                                                                            |.|.|.|.|.|.|.|.|.|.|.|.|.|.                                                                            ",
"                                                                              |.|.|.|.|.|.|.|.|.|.|.|.                                                                              ",
"                                                                                |.|.|.|.|.|.|.|.|.|.                                                                                ",
"                                                                                  |.|.|.|.|.|.|.|.                                                                                  ",
"                                                                                    |.|.|.|.|.|.                                                                                    ",
"                                                                                      |.|.|.|.                                                                                      ",
"                                                                                        |.|.                                                                                        "
};
